<svg xmlns="http://www.w3.org/2000/svg" width="512" height="512" viewBox="0 0 512 512" version="1.1"><path d="M 200.334 94.481 C 165.833 100.741, 130.365 127.331, 104.271 166.500 C 81.923 200.044, 67.214 239.912, 63.055 278.211 C 57.427 330.033, 76.467 364.730, 114.893 372.676 C 125.142 374.796, 144.554 374.016, 155 371.065 C 165.644 368.058, 184.947 358.165, 195.500 350.308 C 207.458 341.404, 226.780 321.945, 236.282 309.237 C 255.830 283.091, 271.484 250.427, 279.525 219.004 C 284.438 199.803, 285.420 191.678, 285.384 170.500 C 285.345 147.465, 284.051 140.684, 276.923 126.181 C 268.795 109.641, 254.200 98.203, 236.500 94.499 C 227.985 92.718, 210.101 92.708, 200.334 94.481 M 203.160 115.403 C 186.807 121.620, 168.394 137.768, 150.402 161.674 C 116.450 206.784, 91.606 277.492, 95.885 316.827 C 97.087 327.879, 98.705 332.900, 103.523 340.535 C 111.786 353.630, 125.397 358.224, 141.801 353.456 C 176.299 343.427, 217.369 289.058, 239.953 223.521 C 248.316 199.253, 251.990 180.244, 251.996 161.208 C 252.002 141.365, 248.810 129.733, 241.144 121.665 C 235.046 115.248, 230.915 113.652, 219.500 113.301 C 210.887 113.036, 208.620 113.328, 203.160 115.403 M 329 190 C 324.708 194.292, 327.034 208.034, 333.074 214.074 C 338.814 219.814, 346.486 221.442, 364.245 220.691 C 384.118 219.850, 398.697 216.503, 417.374 208.494 C 419.196 207.713, 419.198 207.772, 417.435 210.595 C 412.937 217.799, 407.343 223.301, 384.550 242.937 C 353.906 269.336, 326.581 294.466, 317.454 304.643 C 297.090 327.351, 285 346.492, 285 356.026 C 285 359.203, 285.747 360.825, 288.750 364.165 C 293.802 369.784, 300.629 374, 304.676 374 C 306.482 374, 312.427 372.220, 317.887 370.045 C 335.445 363.050, 342.530 361.603, 359.500 361.548 C 376.344 361.494, 381.549 362.646, 398.074 370.087 C 408.326 374.703, 412.262 375.057, 414.548 371.567 C 418.081 366.175, 413.499 352.432, 405.886 345.588 C 398.738 339.160, 391.765 337.510, 375.242 338.334 C 355.725 339.308, 326 346.089, 326 349.567 C 326 350.725, 325.571 350.841, 324.131 350.070 C 323.104 349.520, 321.979 349.355, 321.631 349.702 C 321.284 350.049, 321 349.887, 321 349.342 C 321 348.797, 323.787 344.110, 327.193 338.926 C 335.802 325.823, 354.239 307.662, 383.500 283.463 C 423.065 250.743, 434.673 239.850, 444.326 226.385 C 449.687 218.908, 451.362 213.548, 450.018 208.179 C 447.865 199.583, 440.383 191, 435.042 191 C 433.500 191, 429.147 192.185, 425.369 193.634 C 411.829 198.827, 405.537 200, 391.225 200 C 375.416 200, 364.393 198.032, 346.547 192.024 C 339.973 189.811, 333.785 188, 332.797 188 C 331.809 188, 330.100 188.900, 329 190 M 321 353 C 321 354.867, 321.267 355.133, 322.200 354.200 C 323.133 353.267, 323.133 352.733, 322.200 351.800 C 321.267 350.867, 321 351.133, 321 353" stroke="none" fill="#fafafc" fill-rule="evenodd"/><path d="M 232 0.620 C 209.134 3.348, 188.356 8.065, 170.092 14.675 C 78.430 47.847, 13.802 130.470, 3.067 228.211 C 1.694 240.704, 1.694 271.296, 3.067 283.789 C 14.832 390.904, 92.115 479.913, 195 504.845 C 218.747 510.599, 227.004 511.500, 256 511.500 C 284.996 511.500, 293.253 510.599, 317 504.845 C 411.871 481.855, 486.638 403.096, 505.364 306.421 C 508.954 287.886, 510 276.512, 510 256 C 510 235.488, 508.954 224.114, 505.364 205.579 C 486.866 110.080, 413.750 32.044, 320.163 7.913 C 297.982 2.194, 286.756 0.809, 260 0.493 C 246.525 0.333, 233.925 0.390, 232 0.620 M 200.334 94.481 C 165.833 100.741, 130.365 127.331, 104.271 166.500 C 81.923 200.044, 67.214 239.912, 63.055 278.211 C 57.427 330.033, 76.467 364.730, 114.893 372.676 C 125.142 374.796, 144.554 374.016, 155 371.065 C 165.644 368.058, 184.947 358.165, 195.500 350.308 C 207.458 341.404, 226.780 321.945, 236.282 309.237 C 255.830 283.091, 271.484 250.427, 279.525 219.004 C 284.438 199.803, 285.420 191.678, 285.384 170.500 C 285.345 147.465, 284.051 140.684, 276.923 126.181 C 268.795 109.641, 254.200 98.203, 236.500 94.499 C 227.985 92.718, 210.101 92.708, 200.334 94.481 M 203.160 115.403 C 186.807 121.620, 168.394 137.768, 150.402 161.674 C 116.450 206.784, 91.606 277.492, 95.885 316.827 C 97.087 327.879, 98.705 332.900, 103.523 340.535 C 111.786 353.630, 125.397 358.224, 141.801 353.456 C 176.299 343.427, 217.369 289.058, 239.953 223.521 C 248.316 199.253, 251.990 180.244, 251.996 161.208 C 252.002 141.365, 248.810 129.733, 241.144 121.665 C 235.046 115.248, 230.915 113.652, 219.500 113.301 C 210.887 113.036, 208.620 113.328, 203.160 115.403 M 329 190 C 324.708 194.292, 327.034 208.034, 333.074 214.074 C 338.814 219.814, 346.486 221.442, 364.245 220.691 C 384.118 219.850, 398.697 216.503, 417.374 208.494 C 419.196 207.713, 419.198 207.772, 417.435 210.595 C 412.937 217.799, 407.343 223.301, 384.550 242.937 C 353.906 269.336, 326.581 294.466, 317.454 304.643 C 297.090 327.351, 285 346.492, 285 356.026 C 285 359.203, 285.747 360.825, 288.750 364.165 C 293.802 369.784, 300.629 374, 304.676 374 C 306.482 374, 312.427 372.220, 317.887 370.045 C 335.445 363.050, 342.530 361.603, 359.500 361.548 C 376.344 361.494, 381.549 362.646, 398.074 370.087 C 408.326 374.703, 412.262 375.057, 414.548 371.567 C 418.081 366.175, 413.499 352.432, 405.886 345.588 C 398.738 339.160, 391.765 337.510, 375.242 338.334 C 355.725 339.308, 326 346.089, 326 349.567 C 326 350.725, 325.571 350.841, 324.131 350.070 C 323.104 349.520, 321.979 349.355, 321.631 349.702 C 321.284 350.049, 321 349.887, 321 349.342 C 321 348.797, 323.787 344.110, 327.193 338.926 C 335.802 325.823, 354.239 307.662, 383.500 283.463 C 423.065 250.743, 434.673 239.850, 444.326 226.385 C 449.687 218.908, 451.362 213.548, 450.018 208.179 C 447.865 199.583, 440.383 191, 435.042 191 C 433.500 191, 429.147 192.185, 425.369 193.634 C 411.829 198.827, 405.537 200, 391.225 200 C 375.416 200, 364.393 198.032, 346.547 192.024 C 339.973 189.811, 333.785 188, 332.797 188 C 331.809 188, 330.100 188.900, 329 190 M 321 353 C 321 354.867, 321.267 355.133, 322.200 354.200 C 323.133 353.267, 323.133 352.733, 322.200 351.800 C 321.267 350.867, 321 351.133, 321 353" stroke="none" fill="#641cfc" fill-rule="evenodd"/></svg>